<?xml version="1.0" encoding="UTF-8" standalone="no"?><svg xmlns="http://www.w3.org/2000/svg" xmlns:xlink="http://www.w3.org/1999/xlink" contentScriptType="application/ecmascript" contentStyleType="text/css" height="340px" preserveAspectRatio="none" style="width:674px;height:340px;" version="1.1" viewBox="0 0 674 340" width="674px" zoomAndPan="magnify"><defs><filter height="300%" id="f1qy0igqb1fkov" width="300%" x="-1" y="-1"><feGaussianBlur result="blurOut" stdDeviation="2.0"/><feColorMatrix in="blurOut" result="blurOut2" type="matrix" values="0 0 0 0 0 0 0 0 0 0 0 0 0 0 0 0 0 0 .4 0"/><feOffset dx="4.0" dy="4.0" in="blurOut2" result="blurOut3"/><feBlend in="SourceGraphic" in2="blurOut3" mode="normal"/></filter></defs><g><line style="stroke: #A80036; stroke-width: 1.0;" x1="33" x2="33" y1="38.2969" y2="177.8281"/><line style="stroke: #A80036; stroke-width: 1.0; stroke-dasharray: 1.0,4.0;" x1="33" x2="33" y1="177.8281" y2="218.6328"/><line style="stroke: #A80036; stroke-width: 1.0;" x1="33" x2="33" y1="218.6328" y2="299.8984"/><line style="stroke: #A80036; stroke-width: 1.0;" x1="231.5" x2="231.5" y1="38.2969" y2="177.8281"/><line style="stroke: #A80036; stroke-width: 1.0; stroke-dasharray: 1.0,4.0;" x1="231.5" x2="231.5" y1="177.8281" y2="218.6328"/><line style="stroke: #A80036; stroke-width: 1.0;" x1="231.5" x2="231.5" y1="218.6328" y2="299.8984"/><line style="stroke: #A80036; stroke-width: 1.0;" x1="582.5" x2="582.5" y1="38.2969" y2="177.8281"/><line style="stroke: #A80036; stroke-width: 1.0; stroke-dasharray: 1.0,4.0;" x1="582.5" x2="582.5" y1="177.8281" y2="218.6328"/><line style="stroke: #A80036; stroke-width: 1.0;" x1="582.5" x2="582.5" y1="218.6328" y2="299.8984"/><rect fill="#FEFECE" filter="url(#f1qy0igqb1fkov)" height="30.2969" style="stroke: #A80036; stroke-width: 1.5;" width="46" x="8" y="3"/><text fill="#000000" font-family="sans-serif" font-size="14" lengthAdjust="spacingAndGlyphs" textLength="32" x="15" y="22.9951">Host</text><rect fill="#FEFECE" filter="url(#f1qy0igqb1fkov)" height="30.2969" style="stroke: #A80036; stroke-width: 1.5;" width="46" x="8" y="298.8984"/><text fill="#000000" font-family="sans-serif" font-size="14" lengthAdjust="spacingAndGlyphs" textLength="32" x="15" y="318.8936">Host</text><rect fill="#FEFECE" filter="url(#f1qy0igqb1fkov)" height="30.2969" style="stroke: #A80036; stroke-width: 1.5;" width="91" x="184.5" y="3"/><text fill="#000000" font-family="sans-serif" font-size="14" lengthAdjust="spacingAndGlyphs" textLength="77" x="191.5" y="22.9951">Agreement</text><rect fill="#FEFECE" filter="url(#f1qy0igqb1fkov)" height="30.2969" style="stroke: #A80036; stroke-width: 1.5;" width="91" x="184.5" y="298.8984"/><text fill="#000000" font-family="sans-serif" font-size="14" lengthAdjust="spacingAndGlyphs" textLength="77" x="191.5" y="318.8936">Agreement</text><rect fill="#FEFECE" filter="url(#f1qy0igqb1fkov)" height="30.2969" style="stroke: #A80036; stroke-width: 1.5;" width="127" x="517.5" y="3"/><text fill="#000000" font-family="sans-serif" font-size="14" lengthAdjust="spacingAndGlyphs" textLength="113" x="524.5" y="22.9951">SuperfluidToken</text><rect fill="#FEFECE" filter="url(#f1qy0igqb1fkov)" height="30.2969" style="stroke: #A80036; stroke-width: 1.5;" width="127" x="517.5" y="298.8984"/><text fill="#000000" font-family="sans-serif" font-size="14" lengthAdjust="spacingAndGlyphs" textLength="113" x="524.5" y="318.8936">SuperfluidToken</text><polygon fill="#A80036" points="220,65.4297,230,69.4297,220,73.4297,224,69.4297" style="stroke: #A80036; stroke-width: 1.0;"/><line style="stroke: #A80036; stroke-width: 1.0;" x1="33" x2="226" y1="69.4297" y2="69.4297"/><text fill="#000000" font-family="sans-serif" font-size="13" lengthAdjust="spacingAndGlyphs" textLength="175" x="40" y="64.3638">callAgreement(updateFlow)</text><polygon fill="#A80036" points="44,94.5625,34,98.5625,44,102.5625,40,98.5625" style="stroke: #A80036; stroke-width: 1.0;"/><line style="stroke: #A80036; stroke-width: 1.0;" x1="38" x2="231" y1="98.5625" y2="98.5625"/><text fill="#000000" font-family="sans-serif" font-size="13" lengthAdjust="spacingAndGlyphs" textLength="143" x="50" y="93.4966">authorizeTokenAccess</text><line style="stroke: #A80036; stroke-width: 1.0;" x1="232" x2="274" y1="127.6953" y2="127.6953"/><line style="stroke: #A80036; stroke-width: 1.0;" x1="274" x2="274" y1="127.6953" y2="140.6953"/><line style="stroke: #A80036; stroke-width: 1.0;" x1="233" x2="274" y1="140.6953" y2="140.6953"/><polygon fill="#A80036" points="243,136.6953,233,140.6953,243,144.6953,239,140.6953" style="stroke: #A80036; stroke-width: 1.0;"/><text fill="#000000" font-family="sans-serif" font-size="13" lengthAdjust="spacingAndGlyphs" textLength="144" x="239" y="122.6294">some agreement logic</text><polygon fill="#A80036" points="571,165.8281,581,169.8281,571,173.8281,575,169.8281" style="stroke: #A80036; stroke-width: 1.0;"/><line style="stroke: #A80036; stroke-width: 1.0;" x1="232" x2="577" y1="169.8281" y2="169.8281"/><text fill="#000000" font-family="sans-serif" font-size="13" lengthAdjust="spacingAndGlyphs" textLength="327" x="239" y="164.7622">(extCall) agreementDataOps | agreementStateOps</text><text fill="#000000" font-family="sans-serif" font-size="11" lengthAdjust="spacingAndGlyphs" textLength="129" x="243.5" y="202.0386">A different control flow</text><line style="stroke: #A80036; stroke-width: 1.0;" x1="583" x2="625" y1="239.7656" y2="239.7656"/><line style="stroke: #A80036; stroke-width: 1.0;" x1="625" x2="625" y1="239.7656" y2="252.7656"/><line style="stroke: #A80036; stroke-width: 1.0;" x1="584" x2="625" y1="252.7656" y2="252.7656"/><polygon fill="#A80036" points="594,248.7656,584,252.7656,594,256.7656,590,252.7656" style="stroke: #A80036; stroke-width: 1.0;"/><text fill="#000000" font-family="sans-serif" font-size="13" lengthAdjust="spacingAndGlyphs" textLength="72" x="590" y="234.6997">updateFlow</text><polygon fill="#A80036" points="243,277.8984,233,281.8984,243,285.8984,239,281.8984" style="stroke: #A80036; stroke-width: 1.0;"/><line style="stroke: #A80036; stroke-width: 1.0;" x1="237" x2="582" y1="281.8984" y2="281.8984"/><text fill="#000000" font-family="sans-serif" font-size="13" lengthAdjust="spacingAndGlyphs" textLength="165" x="249" y="276.8325">(delegateCall) updateFlow</text><!--
@startuml

Host -> Agreement: callAgreement(updateFlow)
Agreement -> Host: authorizeTokenAccess
Agreement -> Agreement: some agreement logic
Agreement -> SuperfluidToken: (extCall) agreementDataOps | agreementStateOps

... A different control flow ...

SuperfluidToken -> SuperfluidToken: updateFlow
SuperfluidToken -> Agreement: (delegateCall) updateFlow

@enduml

PlantUML version 1.2018.13(Mon Nov 26 19:11:51 EET 2018)
(GPL source distribution)
Java Runtime: OpenJDK Runtime Environment
JVM: OpenJDK 64-Bit Server VM
Java Version: 11.0.11+9-Ubuntu-0ubuntu2.20.04
Operating System: Linux
OS Version: 5.11.0-38-generic
Default Encoding: UTF-8
Language: en
Country: US
--></g></svg>